<?xml version="1.0" encoding="UTF-8"?>
<svg version="1.1" viewBox="0 0 1416 924" width="354" height="231" xmlns="http://www.w3.org/2000/svg">
<path transform="translate(0)" d="m0 0h1416v924h-1416z" fill="#FDFDFD"/>
<path transform="translate(665,10)" d="m0 0h1l-1 25-8 108-3 47-4 47 17-36 18-37 11-24 15-31 5-9 1 3-2 4-2 7-8 30-9 33-12 43-5 19v3l9-13 13-17 14-19 14-20 14-19 10-14 9-12 14-19 12-16 16-21 5-5v3l-8 14-56 112-10 21-10 19-13 25 4-1 14-12 16-15 14-13 8-7 12-11 8-7 11-9 9-9 8-7 8-8 4-1v2l-8 7-9 12-10 13-13 16-11 14-14 18-10 13-13 17-7 9 27-16 16-10 15-9 29-17 15-9 26-16 15-9 21-12 19-12 7-4-2 5-14 12-14 11-10 9-11 9-11 10-11 9-13 12-11 9-10 9-11 9-14 12-11 10-14 11-9 8-1 2 11-3 21-7 21-8 27-10 32-11 21-8 6-1v2l-20 11-14 8-22 12-15 9-26 14-17 10-13 7 50-7 106-17 51-8 5-1h8l-4 3-24 8-89 29-41 14-44 14-11 3 3 1 53 3 45 2 22 1 25 2 4 2-7 2-25 2-46 6-38 4-25 3-4 1 14 4 37 9 64 16 50 12 33 8 10 3v2h-12l-211-15-34-4-46-7-36-6-64-10-42-7-41-6-44-7-28-5-70-17-64-16-45-11-26-6-11-4 3-2 45 3 26 2 35 2 49 4 42 3h18l-10-6-31-14-23-11-37-18-31-13v-1h10l82 23 38 11 11 2v-2l-5-2-15-12-17-12-16-12-14-10-13-10-11-8-14-10-20-14-26-20-16-11-9-6 4-1 16 8 27 14 42 21 23 11 29 15 25 12 16 8 19 9-6-7-9-10-7-8-10-10-7-8-9-10-8-10-7-7-7-8-11-12-7-7-7-8-7-7h3l11 8 14 11 17 14 17 13 18 14 14 11 27 21-11-18-13-22-17-28-8-13-12-19-14-24-16-27-10-15-11-18-2-7 3 1 6 8 9 10 10 11 18 22 9 10 9 11 11 13 9 11 12 14 10 11 9 11 11 12 9 11 8 8v2l3 1 2 2-6-16-10-27-21-58-7-19-6-18 1-2h2l8 16 12 21 10 17 14 25 8 14 13 24 4 6v-7l-4-23-4-26-9-60-8-49-7-47v-4l3 1 11 34 13 40 10 30 14 44 10 28 8 25 2 6 2 1v-11l2-24 3-78 2-27 2-12h1l5 51 5 36 6 51v11l2-1 11-43 22-90 16-68 3-11z" fill="#F68D29"/>
<path transform="translate(1132,275)" d="m0 0h53l29 3 28 5 22 6 18 6 24 11 19 11 14 10 13 11 7 7 11 14 9 16 5 11 4 13 2 13v27l-4 20-7 19-9 16-9 12-11 13-4 5-8 7-11 10-17 13-19 12-17 10-21 10-23 10-32 12-31 9-29 7-31 6-36 5-46 4-21 1h-67l-37-2-49-4-54-6-49-7-65-11-68-13-43-9-86-19-161-37-40-8-48-7-30-3-22-1h-25l-22 2-21 3-23 6-13 5-14 8-10 8-10 10-9 14-4 9-4 20-2-3v-19l4-16 8-16 7-10 11-12 8-7 15-10 15-8 21-8 17-5 24-5 29-4 24-2h57l43 3 45 5 71 10 140 22 68 11 87 13 60 8 54 6 56 5 57 3h62l39-2 40-4 39-6 40-9 27-8 30-11 23-10 19-10 19-12 13-11 15-15 9-14 5-12 2-8v-21l-5-14-7-12-9-11-10-10-16-12-13-8-16-9-28-11-26-8-27-6-30-5-27-3-16-1h-76l-5-1 1-2 26-5 23-5 24-4 25-3z" fill="#296390"/>
<path transform="translate(589,250)" d="m0 0h37l11 2 28 10 16 8 16 11 11 10 5 5 9 10 10 13 9 15 6 15 5 18 3 21v28l-2 13-2 5v6l-1 1-17-1-15-2-25-2-136-22-40-6-13-2v-2l-16-2-30-5-5-4 1-14 5-26 6-15 8-16 7-10 11-14h2l2-4 8-8 13-10 13-8 15-7 15-6 8-3z" fill="#FDC017"/>
<path transform="translate(280,400)" d="m0 0h49l30 2 42 4 45 6 74 11 159 25 69 11 66 9 59 7 57 6 42 3 35 2h74l52-3 41-5 43-8 30-8 25-8 3 1-32 16-26 11-31 11-36 10-24 5-31 5-26 3-38 3-18 1h-71l-65-4-53-5-87-11-69-10-83-13-88-14-99-15-50-7-38-4-59-4h-29l-20 2-28 2-31 5-10 1 4-4 14-8 16-8 12-5 20-6 29-6 28-4z" fill="#0DA5EA"/>
<path transform="translate(317,666)" d="m0 0h43l14 2 10 4 5 4 6 9 3 11v12l-3 10-6 8-7 6-6 3 2 5 10 11 9 11 10 12 5-11 11-28 14-34 9-23 4-11 7-1h19l7 15 12 31 12 29 12 30 5 11v2h-28l-2-1-7-20v-2h-45l-5 12-3 10-1 1h-53l-10-13-11-14-8-10-5-7-2-1v45h-26l-1-1z" fill="#296491"/>
<path transform="translate(994,666)" d="m0 0h40l16 3 9 6 5 8 2 7v13l-4 10-8 8 14 7 6 8 3 12-1 11-6 12-9 8-10 4-7 1h-51v-117z" fill="#296592"/>
<path transform="translate(793,666)" d="m0 0h37l15 2 10 4 7 8 3 9v13l-3 9-4 6-4 3v2l9 3 7 6 5 11 1 5v9l-4 10-4 6-8 7-11 4-5 1h-51z" fill="#296391"/>
<path transform="translate(1121,666)" d="m0 0h25l46 115v3h-28l-4-10-4-11v-2h-45l-9 22-1 1h-27l-1-2 8-19 34-85 4-11z" fill="#296492"/>
<path transform="translate(919,666)" d="m0 0h25l5 10 15 38 14 35 11 28 2 4v3h-28l-2-3-6-20h-46l-4 13-4 10h-29l1-5 12-29 15-37 12-29z" fill="#296491"/>
<path transform="translate(636,666)" d="m0 0h65l1 1v15l-1 8h-37l-2-1v23l38 1v23l-1 1-37 1v21l40 1v24h-67l-1-1v-101l1-15z" fill="#286593"/>
<path transform="translate(512,666)" d="m0 0h31l4 8 10 27 10 26 6 14 2-3 5-15 11-28 11-29h30l-1 5-12 29-17 41-13 30-5 13h-21l-2-1-6-16-12-28-20-47-9-21z" fill="#296492"/>
<path transform="translate(228,666)" d="m0 0h83v23l-1 1-26 1-1 92-1 1h-25l-1-1-1-92-26-1-1-1z" fill="#296491"/>
<path transform="translate(715,666)" d="m0 0h26l1 94h40v15l-1 9h-66l-1-4v-113z" fill="#286593"/>
<path transform="translate(479,836)" d="m0 0h19l8 2 5 4 4 8v16l-5 8-6 4-11 2h-14z" fill="#1D2B38"/>
<path transform="translate(705,141)" d="m0 0 2 1-1 10-2 5v8l-1 4v8l5-3 5-4 3 1 4 4 2 1 2-4 6-3 2 1-14 20-13 18-14 18-7 10-5 7-1-4 13-48 11-39z" fill="#FFFBF1"/>
<path transform="translate(849,211)" d="m0 0 2 1-18 11-32 19-17 10-23 14-26 16h-2l2-4 11-14 10-13 13-17 13-16 3-3-3 9-3 6-1 6h6l2 4 4 1 9-3 4-3 16-8 4-3 6-1 1-3 8-3 3-3z" fill="#FFFBF1"/>
<path transform="translate(315,295)" d="m0 0 9 3 73 35 20 9 16 8 2 3h-19l-42-3-63-5-36-2-37-3-20-1v2l-6-1-1-2 2-1 49 1 36 3 31 1h28v-1l9-2 9 1 19 5 5 1 1 2 8 1h10v-2h-2l-1-3-10-4-31-15-15-6-9-4-10-4-4-3-2-1v-2l-7-1-2-4-5-1-5-3z" fill="#FEFBF1"/>
<path transform="translate(591,79)" d="m0 0h1l-1 17-3 68-1 28-3 35-3-1-10-31-11-31-11-35-10-31-1-5 4 4 3 12 6 12 9 24 6 21 5 8 5 12 2 5 1-4 2-5 2-9 2-5v-45l2-23 2-6z" fill="#FFFBF1"/>
<path transform="translate(854,836)" d="m0 0h20l7 2 4 5 1 7-3 5-3 2 1 4 7 17v2h-8l-2-1-5-15-3-2h-6l-1 18h-8l-1-1z" fill="#1D3243"/>
<path transform="translate(665,836)" d="m0 0h9l7 10 9 15 1 1 1-6 1-20h6l2 1v43h-8l-8-11-8-13-3-4-1 28h-8l-1-1v-19z" fill="#1D2E3D"/>
<path transform="translate(848,354)" d="m0 0 3 1-8 4-4 1-5 4-1 5 6 4v2l5 2 8 3 21 2 31 2 19 2v1h-16l-9-1-39-2-44-2-37-2-5-1 2-2 27-8z" fill="#FEFBF1"/>
<path transform="translate(427,836)" d="m0 0h10l4 9 11 32v3h-7l-3-4-2-7-16 1-3 9-9 1 1-5 13-38z" fill="#1D2D3C"/>
<path transform="translate(657,130)" d="m0 0h1l1 18 1 16 4 13 4 2 4-2h7l-9 20-15 31-5 10-1-3 4-45z" fill="#FFFBF1"/>
<path transform="translate(760,164)" d="m0 0 1 4-6 12-3 10-7 16-5 18-2 8 4-2 5-5 9-7 9-4 2 1-15 14-8 7-7 7-8 7-13 11-5 2 2-6 17-33 8-16 9-17 11-23z" fill="#FFFBF1"/>
<path transform="translate(360,263)" d="m0 0 4 2 20 15 14 10 16 12 14 10 13 10 3 3-3 1-20-5-41-12-40-11-3-2 1-1 9 1 13 2 20 4 12 2 11 4 3 2 7 2 1 2 7 1-2-6-4-1-6-5-9-3-5-6-7-8-13-9-13-10z" fill="#FEFBF1"/>
<path transform="translate(464,188)" d="m0 0 4 2 7 3 8 6 3 4 6 7 4 6 6 2-1-5-5-5-4-7 1-5 3-5v-2h3l16 44 6 14 1 6-6-5-7-8-10-11-9-11-11-12-7-8-8-9z" fill="#FEFBF1"/>
<path transform="translate(916,836)" d="m0 0h28v7h-20v11h19v5l-2 1h-17v13h21v6l-16 1h-13z" fill="#1D2E3E"/>
<path transform="translate(789,836)" d="m0 0h7l1 26 2 9 2 1h9l4-2 1-8 1-26h7l1 5-1 27-3 7-3 3-7 2h-10l-8-4-3-7-1-11v-11z" fill="#1D2A37"/>
<path transform="translate(541,836)" d="m0 0h8l2 1 6 20 4 11 2-5 5-18 4-9h7l1 3-6 18-7 20-2 2-9 1-2-2-12-37z" fill="#1C2D3B"/>
<path transform="translate(980,836)" d="m0 0h12l7 4 1 4-5 2-3-2h-13v7l15 4 6 5 2 5-1 7-4 5-7 3h-9l-10-4-1-2v-6l6 1 5 3h10l1-1v-7l-8-3-9-3-4-4-1-9 3-5 4-3z" fill="#1D2E3D"/>
<path transform="translate(627,836)" d="m0 0h9v7h-20v11h18l1 5-2 1-16 1-1 12h21v6l-18 1h-11v-43z" fill="#1E2E3E"/>
<path transform="translate(963,307)" d="m0 0h17v1l-24 4-75 12-58 9-54 8-2-1 14-8 23-13 6-3-2 5-8 4h-3l-1 9h8l1-2h2l8-3 1-2h7l3-2 10-1 4 2 17-1 29-4 9-2 15-2 14-3 18-3 13-2z" fill="#FEFBF1"/>
<path transform="translate(820,736)" d="m0 0h17l7 4 3 4 1 8-5 8-8 3-14 1-2-2v-22z" fill="#FEFDFD"/>
<path transform="translate(345,688)" d="m0 0h11l9 3 4 5v13l-6 7-10 3h-6l-3-2v-27z" fill="#FEFDFD"/>
<path transform="translate(1021,736)" d="m0 0h15l7 3 4 4 1 2v10l-7 6-5 2h-15l-1-1v-25z" fill="#FEFDFD"/>
<path transform="translate(410,213)" d="m0 0 7 2 4 4v2l4 2 5 4 10 4 15 8h2v-6l-2-9 2-3 15 26 11 18 4 6v2l-4-2-15-12-13-10-15-12-26-20z" fill="#FFFBF1"/>
<path transform="translate(417,236)" d="m0 0 5 5 12 13 11 12 8 8 7 8 9 10-1 2-31-15-23-11-24-12v-1l9 1 9 3 7 1 4 3 11 5 10 7 3 3 5 2 2-2v-3l-5-4-9-6v-2l-4-2-7-8-7-12z" fill="#FFFBF1"/>
<path transform="translate(486,134)" d="m0 0h2l8 12 3 3 4 7 10 15 8 16 6 11 6 9 6 1-5-13 1-9v-8h1l4 26 4 23v9l-4-5-14-25-8-15-10-17-14-25-8-13z" fill="#FFFBF1"/>
<path transform="translate(811,402)" d="m0 0h6l-2 2-6 2 1 5 8 3 12 1 16 4 8 3 9 3 20 5 13 4 34 8 12 3v2l-8-1-41-10-64-16-33-8-14-4-1-2z" fill="#FFFBF1"/>
<path transform="translate(487,843)" d="m0 0h12l5 3 3 5 1 10-2 6-4 4-8 2-7-1z" fill="#FBFDFD"/>
<path transform="translate(734,836)" d="m0 0h17l12 1-2 6-11 1-1 36h-8l-1-35-2-1-10-1v-6z" fill="#1D3041"/>
<path transform="translate(1132,704)" d="m0 0 3 1 5 15 5 13v3l-11 1h-11l-3-1 3-9 8-21z" fill="#FEFDFD"/>
<path transform="translate(462,705)" d="m0 0h3l8 20 3 8v3l-3 1h-21l1-7 6-15z" fill="#FEFDFD"/>
<path transform="translate(930,705)" d="m0 0h3l11 28-1 4h-23l-1-2 10-27z" fill="#FEFEFE"/>
<path transform="translate(820,688)" d="m0 0h12l6 5 1 2v9l-5 6-10 3-5-2v-22z" fill="#FEFDFD"/>
<path transform="translate(1021,687)" d="m0 0 11 1 6 4 1 1v13l-6 5-3 1h-9l-1-1v-22z" fill="#FEFDFD"/>
<path transform="translate(601,140)" d="m0 0h1l2 6 4 8 4 26 1 8v16l-2 5 2 3 2-1-2 12-3 1-7-62-2-13z" fill="#FFFBF1"/>
<path transform="translate(875,272)" d="m0 0 3 1-15 6-36 12-26 10-16 6-3-1 6-4 6-2 3-2 11-5 10-5 13-2 16-8 21-4z" fill="#FFFBF1"/>
<path transform="translate(693,836)" d="m0 0h6l2 1v43h-8v-1h7v-4h-2l-1-12-1-1-2 4 1 6-2-1-3-6 1-3 1-6z" fill="#286694"/>
<path transform="translate(787,286)" d="m0 0 2 2h-2l-2 4-8 11-1 3h-2v3l6-1-3 2-19 6-3-1 4-5 11-9 14-12z" fill="#FFFBF1"/>
<path transform="translate(306,213)" d="m0 0 9 2 10 6 7 3 8 4 19 7 19 11 5 5-6-2-16-8-25-12-30-15z" fill="#FFFBF1"/>
<path transform="translate(895,392)" d="m0 0h9v1l-22 4-19 2h-6v2l-10 2-29-1v-1l31-3z" fill="#FFFBF1"/>
<path transform="translate(864,843)" d="m0 0h11l2 2v8l-4 2h-9l-1-1v-10z" fill="#FEFDFC"/>
<path transform="translate(514,44)" d="m0 0h1l5 32 6 37-1 4-2-9-2-5-4-19 1-13h-2l-2-14z" fill="#FFFBF1"/>
<path transform="translate(431,844)" d="m0 0 2 1 5 16v2h-12l4-16z" fill="#FEFDFC"/>
<path transform="translate(693,836)" d="m0 0h6l1 1v13l-3 3v-2h-2v7l-2 3-1-5z" fill="#1E2F3F"/>
<path transform="translate(907,456)" d="m0 0h13l42 3v1h-16l1 3-10-1-21-4-9-1z" fill="#FFFBF1"/>
<path transform="translate(773,245)" d="m0 0h4l-2 5-5 4-10 7-2-2 7-8z" fill="#FEFEFE"/>
<path transform="translate(298,217)" d="m0 0 8 6 13 10 19 13-3 1-10-7-9-6-5-4-10-7-3-4z" fill="#FFFBF1"/>
<path transform="translate(660,90)" d="m0 0h1l1 5v16l-3 18h-1v-15z" fill="#FFFBF1"/>
<path transform="translate(811,266)" d="m0 0v3l-13 13-7 4v-3l11-10z" fill="#FFFBF1"/>
<path transform="translate(895,183)" d="m0 0 2 2-23 13-2-1 5-4 5-2 1-2z" fill="#FFFBF1"/>
<path transform="translate(835,245)" d="m0 0h2l-2 4-5 6-5 2v-3z" fill="#FFFBF1"/>
<path transform="translate(788,192)" d="m0 0 4 1-10 9h-2l2-5z" fill="#FFFBF1"/>
<path transform="translate(873,854)" d="m0 0 3 1v4l-7-1-5-2v-1z" fill="#27628E"/>
<path transform="translate(373,82)" d="m0 0 3 1 5 8-2 2-4-4z" fill="#F99E23"/>
<path transform="translate(924,165)" d="m0 0h2v3l-7 3-6 4h-2v-2l7-5z" fill="#FEF3E4"/>
<path transform="translate(798,77)" d="m0 0 2 1-9 12-1-3 5-7h2z" fill="#FEFBF1"/>
<path transform="translate(511,18)" d="m0 0 3 1 1 7-3 4z" fill="#F9A321"/>
</svg>
