<?xml version="1.0" encoding="UTF-8"?>
<svg version="1.1" viewBox="0 0 2000 2000" width="500" height="500" xmlns="http://www.w3.org/2000/svg">
<path transform="translate(0)" d="m0 0h2e3v2e3h-2e3z" fill="#FDFCFC"/>
<path transform="translate(957,555)" d="m0 0h1l-1 22-6 74-4 54-3 58-3 19 2-1 5-13 11-23 8-15 10-21 13-29 11-23 7-13 1 3-10 34-10 36-10 35-7 26-2 8 5-5 9-13 4-5 13-18 10-13 13-19 14-18 13-18 6-9 9-12 11-14 11-15 10-14 3-2-3 9-12 22-18 35-10 21-10 19-14 28-11 23-8 16-8 15-5 9 13-9 6-5 4-5 11-9 13-13 8-7 14-12 10-10 8-7 12-11 11-10 6-4-2 4-10 13-12 14-12 16-8 9-9 12-11 14-12 16-7 9-11 14 18-11 13-7 19-12 13-8 21-12 15-9 21-13 16-10 24-14 16-10 14-8 2 1-4 5-16 12-13 10-12 11-8 7-14 12-10 9-8 7-17 14-12 11-14 11-8 7h-2v2l-8 7-11 9-8 7-7 5 9-2 36-12 42-16 31-11 20-8 4 1-5 4-27 15-22 12-13 8-24 13-18 10-16 9h11l42-6 17-3 52-8 67-11 22-4h6l-3 3-17 6-23 7-55 18-43 14-40 14-34 9 2 1 50 3 64 3 34 2 3 1v2l-32 3-24 3-44 5-40 5-4 1 4 2 26 6 24 6 35 9 58 14 57 13 6 2v2l-24-1-48-4-144-10-41-4-48-8-48-7-39-7-76-12-12-1-7-2-23-3-40-7-31-7-116-29-40-9-33-8-1-3h15l48 4 10 1 34 2 39 3 57 4h19l-10-4-28-13-29-14-28-13-24-11-20-8v-1l13 1 30 9 25 7 33 9 35 10 6 1-5-5-10-8-13-9-10-8-16-12-17-12-22-16-34-24-12-10-13-9-12-8-11-8v-2l9 3 15 8 22 12 23 12 44 21 19 10 23 11 46 23-4-6-9-9-7-8-13-14-7-8-9-9-9-11-4-5-5-5-16-17-11-11v-2l-4-2-4-6 5 2 13 10 14 12 10 8 14 11 16 12 11 8 18 14 16 13 2 1-5-9-7-11-12-21-13-21-15-24-6-10-8-13-15-26-8-14-18-27-6-11 1-2 9 10v2l3 1 7 8 12 14 11 14 10 11 9 11 9 10 8 10 10 11 9 11 13 15 7 7 7 8 8 10 12 13 3 3-6-16-7-18-13-38-8-21-13-36-4-12 1-4 8 16 10 18 14 25 9 16 11 19 11 20 9 14-1-11-5-28-7-49-8-52-7-44-4-23v-10l2 2 10 30 6 20 14 43 14 41 21 63 3 8 2 1 3-48 2-40 1-37 2-18 2-1 6 55 6 45 4 37 1 3h2l6-27 7-26 12-50 16-64 5-24z" fill="#FF8E20"/>
<path transform="translate(1423,819)" d="m0 0h54l29 3 28 5 22 6 20 7 20 9 18 10 17 12 13 11 8 8 10 13 9 16 5 11 4 13 2 12 1 18-2 17-4 16-6 16-9 16-9 12-9 11-10 11-8 7-14 12-13 9-19 12-22 12-33 15-35 13-27 8-38 9-39 7-33 4-37 3-22 1h-65l-38-2-49-4-61-7-60-9-73-13-75-15-95-21-65-15-82-19-48-10-39-6-35-4-10-1-22-1h-26l-21 2-21 3-20 5-16 6-14 8-9 7-4 2v2h-2l-2 4-7 8-8 15-5 21-2-4v-14l3-15 7-16 8-12 12-13 14-11 13-8 16-8 20-7 13-4 24-5 29-4 25-2h56l44 3 44 5 84 12 221 35 82 12 64 8 60 6 42 3 39 2h61l41-2 34-3 45-7 36-8 28-8 26-9 26-11 25-13 11-7 12-9 14-12 7-8 9-13 6-13 2-8v-22l-6-16-7-11-8-10-10-10-13-10-14-9-18-10-30-12-24-7-26-6-30-5-28-3-17-1h-75l-4-2 7-2 36-8 30-5z" fill="#286394"/>
<path transform="translate(891,794)" d="m0 0h27l12 1 6 4 13 4 11 5 6 2 12 8 9 5 15 14 1 3 4 2 7 8 10 13 6 9 6 16 6 19 4 19 1 10v21l-1 12-3 4v13l-10 1-20-3-36-6-48-7-39-7-76-12-12-1-7-2-23-3-5-1v-2l-12-1-12-3 3-8 1-10 5-23 7-21 5-9 6-10 5-6 5-5 7-8 6-5 5-5 12-10 5-3h2v-2l8-4 5-3 10-3 9-4 5-2 1-3 12 1z" fill="#FEBF13"/>
<path transform="translate(576,944)" d="m0 0h53l48 4 58 7 68 10 64 10 183 29 53 7 64 8 68 7 48 3 23 1h68l49-3 35-4 47-8 30-8 29-9 3 1-10 6-28 13-27 11-34 11-30 8-36 7-39 5-39 3-25 1h-64l-39-2-54-4-53-6-76-10-74-11-52-8-93-15-79-12-62-9-52-6-64-4h-20l-22 2-28 2-36 6-7 1 1-3 25-14 16-7 21-7 26-6 27-4 19-2z" fill="#0AABF6"/>
<path transform="translate(610,1210)" d="m0 0h44l13 2 10 5 7 7 4 8 2 8v12l-3 10-6 8-6 5-7 5 3 5 24 28 3 4v2h2l3-9 11-28 11-27 14-35 3-9 7-1h19l5 10 14 36 14 34 11 28 4 8v2h-21l-9-1-7-20v-2h-45l-7 18-1 4-2 1h-51l-5-5-6-8-10-13-13-16-3-3v44l-1 1h-25l-1-2v-115z" fill="#286495"/>
<path transform="translate(1286,1210)" d="m0 0h39l13 2 12 6 6 9 2 6v15l-4 9-7 7v2l10 4 7 7 4 9 1 12-3 11-6 8-8 6-9 4-10 1h-47l-1-1v-116z" fill="#286496"/>
<path transform="translate(1085,1210)" d="m0 0h37l14 2 9 3 7 6 4 8 1 4v13l-3 9-3 5-5 4v2l9 3 5 4 6 10 2 7v10l-3 9-6 8-7 6-11 4-6 1h-50z" fill="#286394"/>
<path transform="translate(1413,1210)" d="m0 0h24l3 5 13 33 29 72 2 7-1 1h-24l-4-1-7-20v-2h-45l-9 22-1 1h-27l-1-3 7-16 19-47 20-50z" fill="#286495"/>
<path transform="translate(1211,1210)" d="m0 0h25l5 10 14 36 11 27 18 45h-29l-2-3-4-13-2-6-8-1h-37l-5 12-3 10-1 1h-28l-1-2 13-32 18-44 11-27 4-12z" fill="#286395"/>
<path transform="translate(927,1210)" d="m0 0h66l1 1v19l-1 4-39 1v21l38 1v23l-2 1-36 1v21l4 1h36v23l-1 1h-67v-102z" fill="#286596"/>
<path transform="translate(805,1210)" d="m0 0h31l11 30 16 41 3 4 5-15 16-41 7-19h29l1 3-16 38-14 34-13 30-5 12-1 1h-20l-2-1-6-16-20-47-13-31-9-21z" fill="#286395"/>
<path transform="translate(520,1210)" d="m0 0h83v23l-1 1-26 1-1 92-1 1h-25l-1-1v-93h-27l-1-1z" fill="#286394"/>
<path transform="translate(1007,1210)" d="m0 0h26l1 94h39l1 1v12l-1 11h-66l-1-14v-103z" fill="#276597"/>
<path transform="translate(771,1380)" d="m0 0h15l12 2 6 5 3 8v15l-4 7-5 4-6 2-8 1h-13l-1-43z" fill="#286394"/>
<path transform="translate(1147,1380)" d="m0 0h16l10 2 4 5 1 8-4 5-2 1 1 4 6 16-1 3-8-1-4-13-2-3-8-1-1 17-1 1h-7l-1-43z" fill="#286394"/>
<path transform="translate(957,1380)" d="m0 0h9l7 10 8 14 2 4 1-3 1-24 1-1 7 1v43h-7l-5-5-11-18-4-5-1 27-6 1-2-1z" fill="#286394"/>
<path transform="translate(720,1380)" d="m0 0h8l3 3 12 36 1 5h-6l-3-3-3-7h-16l-4 9-7 1-1-2 14-41z" fill="#286394"/>
<path transform="translate(1209,1380)" d="m0 0h26l1 1v6h-20v11h19v5l-3 1h-16v13h21v6l-29 1v-43z" fill="#286394"/>
<path transform="translate(923,1380)" d="m0 0h5v7h-20v11h18l1 5-3 1-15 1-1 12h21v6l-29 1v-43z" fill="#286394"/>
<path transform="translate(833,1380)" d="m0 0h7l3 2 9 27v4h2l4-17 5-14 2-2h6l-1 9-11 32-2 2-8 1-3-3-10-30-3-8z" fill="#286394"/>
<path transform="translate(1081,1380)" d="m0 0h7l1 28 2 7 2 1h9l3-1 2-7 1-28h7v32l-3 7-6 4-5 1h-8l-8-3-3-5-1-4z" fill="#286394"/>
<path transform="translate(1113,1279)" d="m0 0 15 1 8 4 4 6v6l-5 8-7 3-13 1-4-2v-20z" fill="#FDFDFD"/>
<path transform="translate(637,1232)" d="m0 0h12l8 3 4 5 1 9-3 7-6 5-7 2h-7l-3-2v-28z" fill="#FDFDFD"/>
<path transform="translate(1272,1380)" d="m0 0h11l8 4v4l-5 1-2-1h-12l-1 1v6l5 2 9 2 6 4 2 3v9l-3 5-4 3-4 1h-8l-9-3-3-3v-5l4-1 6 4 8 1 5-3-1-6-8-3-9-3-4-5-1-7 2-5 5-4z" fill="#286394"/>
<path transform="translate(1313,1280)" d="m0 0h15l7 3 5 6v10l-5 5-7 3h-15l-1-1v-23z" fill="#FDFDFD"/>
<path transform="translate(779,1387)" d="m0 0h12l5 3 3 4 1 4v9l-3 6-4 3-5 1h-8l-1-1z" fill="#FDFDFD"/>
<path transform="translate(1020,1381)" d="m0 0h35l-1 5-2 1-10 1-1 35-7 1-1-1-1-35-11-1-1-1z" fill="#296394"/>
<path transform="translate(1222,1249)" d="m0 0h3l11 26v5l-3 1h-21l-1-2 6-16 4-11z" fill="#FDFDFD"/>
<path transform="translate(1424,1248)" d="m0 0 3 2 10 26v4l-7 1h-17l-1-3z" fill="#FDFDFD"/>
<path transform="translate(754,1249)" d="m0 0h3l11 27-1 5h-23l1-8 6-14z" fill="#FDFDFD"/>
<path transform="translate(1314,1231)" d="m0 0 10 1 6 3 2 4v8l-3 5-6 4h-10l-1-1v-22z" fill="#FDFDFD"/>
<path transform="translate(1113,1231)" d="m0 0 10 1 5 3 3 4v9l-5 6-9 3-5-1-1-1v-22z" fill="#FDFDFD"/>
<path transform="translate(1156,1387)" d="m0 0h12l1 1v9l-2 2h-11l-1-1v-10z" fill="#FDFDFD"/>
<path transform="translate(723,1387)" d="m0 0 2 1 5 16v3h-12l4-17z" fill="#FDFDFD"/>
<path transform="translate(804,563)" d="m0 0 2 2 7 20-1 4h-2l-1 7h-1l-4-23z" fill="#FFC013"/>
<path transform="translate(1214,713)" d="m0 0 2 1-4 5-16 12-3-1-1-4 18-11z" fill="#FFBB14"/>
<path transform="translate(885,627)" d="m0 0h1l2 18v7l-2-3-2 5-1 26h-1v-34l2-18z" fill="#FFB914"/>
<path transform="translate(1272,851)" d="m0 0h6l-3 3-10 4h-10l-11-1v-1l24-4z" fill="#FFBE13"/>
<path transform="translate(763,652)" d="m0 0 3 4 6 12 3 5-2 5-2 2-8-24z" fill="#FFBB14"/>
<path transform="translate(511,883)" d="m0 0h15l15 1v1l-25 2-5-2z" fill="#FFBE13"/>
<path transform="translate(561,739)" d="m0 0 9 3 8 4-1 3h-5l-11-8z" fill="#FFBF13"/>
<path transform="translate(1117,706)" d="m0 0v3l-8 10-6 2v-3z" fill="#FFBE13"/>
<path transform="translate(1182,811)" d="m0 0 4 1-5 4-6 3-1-3-2-1z" fill="#FFC013"/>
<path transform="translate(957,555)" d="m0 0h1l-1 17h-3l-1 3-1-2z" fill="#FFA11B"/>
<path transform="translate(885,627)" d="m0 0h1l1 14h-3l-1 3 1-16z" fill="#FFC013"/>
<path transform="translate(666,628)" d="m0 0 5 5 3 4-2 4-6-11z" fill="#FFB416"/>
<path transform="translate(660,726)" d="m0 0 5 2 6 4-1 2-5-1z" fill="#FFBE13"/>
<path transform="translate(1100,611)" d="m0 0 1 2-4 8h-2l-1-3z" fill="#FFB216"/>
</svg>
